<svg width="28" height="28" viewBox="0 0 28 28" fill="none" xmlns="http://www.w3.org/2000/svg">
<path d="M4.37118 9.95661V20.8329M10.4891 9.95661V20.8329M17.2868 9.95661V20.8329M23.4048 9.95661V20.8329M1.6521 23.0082L1.6521 24.0958C1.6521 24.8573 1.6521 25.238 1.80028 25.5288C1.93062 25.7846 2.13861 25.9926 2.39442 26.1229C2.68524 26.2711 3.06595 26.2711 3.82737 26.2711H23.9486C24.71 26.2711 25.0907 26.2711 25.3815 26.1229C25.6374 25.9926 25.8453 25.7846 25.9757 25.5288C26.1239 25.238 26.1239 24.8573 26.1239 24.0959V23.0082C26.1239 22.2468 26.1239 21.8661 25.9757 21.5753C25.8453 21.3195 25.6374 21.1115 25.3815 20.9811C25.0907 20.8329 24.71 20.8329 23.9486 20.8329H3.82737C3.06595 20.8329 2.68524 20.8329 2.39442 20.9811C2.13861 21.1115 1.93062 21.3195 1.80028 21.5753C1.6521 21.8661 1.6521 22.2468 1.6521 23.0082ZM13.4161 1.90422L3.35549 4.13991C2.74769 4.27498 2.44379 4.34251 2.21694 4.50594C2.01685 4.65009 1.85974 4.84595 1.76243 5.07254C1.6521 5.32944 1.6521 5.64075 1.6521 6.26338L1.6521 7.78134C1.6521 8.54276 1.6521 8.92346 1.80028 9.21429C1.93062 9.4701 2.13861 9.67808 2.39442 9.80843C2.68524 9.95661 3.06595 9.95661 3.82737 9.95661H23.9486C24.71 9.95661 25.0907 9.95661 25.3815 9.80843C25.6374 9.67808 25.8453 9.4701 25.9757 9.21429C26.1239 8.92346 26.1239 8.54276 26.1239 7.78134V6.26338C26.1239 5.64075 26.1239 5.32944 26.0135 5.07254C25.9162 4.84595 25.7591 4.65009 25.559 4.50594C25.3322 4.34251 25.0283 4.27498 24.4205 4.13991L14.3599 1.90422C14.1838 1.86509 14.0957 1.84552 14.0067 1.83772C13.9277 1.83079 13.8482 1.83079 13.7692 1.83772C13.6802 1.84552 13.5922 1.86509 13.4161 1.90422Z" stroke="white" stroke-width="2" stroke-linecap="round" stroke-linejoin="round"/>
</svg>
