<svg width="33" height="33" viewBox="0 0 33 33" fill="none" xmlns="http://www.w3.org/2000/svg">
<path d="M12.6105 28.875C13.5507 29.7307 14.7857 30.25 16.1383 30.25C17.4909 30.25 18.7259 29.7307 19.6661 28.875M24.1383 11C24.1383 8.81196 23.2955 6.71354 21.7952 5.16637C20.2949 3.61919 18.26 2.75 16.1383 2.75C14.0166 2.75 11.9817 3.61919 10.4815 5.16637C8.98116 6.71354 8.13831 8.81196 8.13831 11C8.13831 15.249 7.09894 18.1582 5.93786 20.0824C4.95848 21.7056 4.46879 22.5171 4.48674 22.7435C4.50663 22.9942 4.55812 23.0898 4.75401 23.2397C4.93092 23.375 5.72843 23.375 7.32345 23.375H24.9532C26.5482 23.375 27.3457 23.375 27.5226 23.2397C27.7185 23.0898 27.77 22.9942 27.7899 22.7435C27.8078 22.5171 27.3181 21.7056 26.3388 20.0824C25.1777 18.1582 24.1383 15.249 24.1383 11Z" stroke="black" stroke-width="2" stroke-linecap="round" stroke-linejoin="round"/>
</svg>
