<svg width="30" height="27" viewBox="0 0 30 27" fill="none" xmlns="http://www.w3.org/2000/svg">
<path d="M4.27426 7.87463C4.05129 7.86887 3.88937 7.85597 3.74379 7.82701C2.66516 7.61245 1.82198 6.76927 1.60742 5.69064C1.55518 5.42798 1.55518 5.11212 1.55518 4.4804C1.55518 3.84868 1.55518 3.53282 1.60742 3.27016C1.82198 2.19153 2.66516 1.34834 3.74379 1.13379C4.00645 1.08154 4.32231 1.08154 4.95403 1.08154H25.3472C25.9789 1.08154 26.2947 1.08154 26.5574 1.13379C27.636 1.34834 28.4792 2.19153 28.6938 3.27016C28.746 3.53282 28.746 3.84868 28.746 4.4804C28.746 5.11212 28.746 5.42798 28.6938 5.69064C28.4792 6.76927 27.636 7.61245 26.5574 7.82701C26.4118 7.85597 26.2499 7.86887 26.0269 7.87463M12.4315 14.677H17.8697M4.27426 7.87925H26.0269V19.0275C26.0269 21.3117 26.0269 22.4539 25.5824 23.3263C25.1914 24.0938 24.5674 24.7177 23.8 25.1088C22.9275 25.5533 21.7854 25.5533 19.5011 25.5533H10.8001C8.51582 25.5533 7.3737 25.5533 6.50123 25.1088C5.73379 24.7177 5.10984 24.0938 4.7188 23.3263C4.27426 22.4539 4.27426 21.3117 4.27426 19.0275V7.87925Z" stroke="white" stroke-width="2" stroke-linecap="round" stroke-linejoin="round"/>
</svg>
