<svg width="30" height="30" viewBox="0 0 30 30" fill="none" xmlns="http://www.w3.org/2000/svg">
<path d="M14.8879 28.9898C22.3964 28.9898 28.4833 22.9029 28.4833 15.3944C28.4833 7.88583 22.3964 1.79895 14.8879 1.79895C7.37936 1.79895 1.29248 7.88583 1.29248 15.3944C1.29248 22.9029 7.37936 28.9898 14.8879 28.9898Z" stroke="white" stroke-width="2" stroke-linecap="round" stroke-linejoin="round"/>
<path d="M17.3804 9.00452C17.3804 8.62382 17.3804 8.43346 17.3063 8.28805C17.2411 8.16014 17.1371 8.05615 17.0092 7.99098C16.8638 7.91689 16.6735 7.91689 16.2928 7.91689H13.483C13.1023 7.91689 12.912 7.91689 12.7666 7.99098C12.6387 8.05615 12.5347 8.16014 12.4695 8.28805C12.3954 8.43346 12.3954 8.62382 12.3954 9.00453V11.8142C12.3954 12.195 12.3954 12.3853 12.3213 12.5307C12.2561 12.6586 12.1522 12.7626 12.0242 12.8278C11.8788 12.9019 11.6885 12.9019 11.3078 12.9019H8.49805C8.11735 12.9019 7.92699 12.9019 7.78158 12.976C7.65367 13.0411 7.54968 13.1451 7.48451 13.273C7.41042 13.4184 7.41042 13.6088 7.41042 13.9895V16.7992C7.41042 17.1799 7.41042 17.3703 7.48451 17.5157C7.54968 17.6436 7.65367 17.7476 7.78158 17.8128C7.92699 17.8869 8.11735 17.8869 8.49806 17.8869H11.3078C11.6885 17.8869 11.8788 17.8869 12.0242 17.961C12.1522 18.0261 12.2561 18.1301 12.3213 18.258C12.3954 18.4034 12.3954 18.5938 12.3954 18.9745V21.7842C12.3954 22.1649 12.3954 22.3553 12.4695 22.5007C12.5347 22.6286 12.6387 22.7326 12.7666 22.7978C12.912 22.8719 13.1023 22.8719 13.483 22.8719H16.2928C16.6735 22.8719 16.8638 22.8719 17.0092 22.7978C17.1371 22.7326 17.2411 22.6286 17.3063 22.5007C17.3804 22.3553 17.3804 22.1649 17.3804 21.7842V18.9745C17.3804 18.5938 17.3804 18.4034 17.4545 18.258C17.5197 18.1301 17.6237 18.0261 17.7516 17.961C17.897 17.8869 18.0873 17.8869 18.468 17.8869H21.2778C21.6585 17.8869 21.8488 17.8869 21.9942 17.8128C22.1221 17.7476 22.2261 17.6436 22.2913 17.5157C22.3654 17.3703 22.3654 17.1799 22.3654 16.7992V13.9895C22.3654 13.6088 22.3654 13.4185 22.2913 13.273C22.2261 13.1451 22.1221 13.0411 21.9942 12.976C21.8488 12.9019 21.6585 12.9019 21.2778 12.9019H18.468C18.0873 12.9019 17.897 12.9019 17.7516 12.8278C17.6237 12.7626 17.5197 12.6586 17.4545 12.5307C17.3804 12.3853 17.3804 12.195 17.3804 11.8142V9.00452Z" stroke="white" stroke-width="2" stroke-linecap="round" stroke-linejoin="round"/>
</svg>
