<svg width="28" height="28" viewBox="0 0 28 28" fill="none" xmlns="http://www.w3.org/2000/svg">
<path d="M8.62114 17.1222C9.22483 19.4678 11.354 21.2009 13.888 21.2009C16.4219 21.2009 18.5511 19.4678 19.1548 17.1222M12.5525 1.84643L3.33166 9.01819C2.71529 9.49759 2.4071 9.73729 2.18508 10.0375C1.9884 10.3034 1.84189 10.603 1.75274 10.9214C1.6521 11.281 1.6521 11.6714 1.6521 12.4523V22.2885C1.6521 23.8113 1.6521 24.5727 1.94846 25.1544C2.20915 25.666 2.62512 26.082 3.13675 26.3427C3.71839 26.639 4.4798 26.639 6.00263 26.639H21.7733C23.2962 26.639 24.0576 26.639 24.6392 26.3427C25.1508 26.082 25.5668 25.666 25.8275 25.1544C26.1239 24.5727 26.1239 23.8113 26.1239 22.2885V12.4523C26.1239 11.6714 26.1239 11.281 26.0232 10.9214C25.9341 10.603 25.7876 10.3034 25.5909 10.0375C25.3689 9.73729 25.0607 9.49759 24.4443 9.01819L15.2235 1.84643C14.7458 1.47493 14.507 1.28918 14.2433 1.21778C14.0106 1.15478 13.7654 1.15478 13.5327 1.21778C13.269 1.28918 13.0301 1.47493 12.5525 1.84643Z" stroke="white" stroke-width="2" stroke-linecap="round" stroke-linejoin="round"/>
</svg>
