<svg width="24" height="22" viewBox="0 0 24 22" fill="none" xmlns="http://www.w3.org/2000/svg">
<path d="M22.7642 18.6951C22.7642 19.3042 22.7642 19.6088 22.6456 19.8414C22.5413 20.0461 22.375 20.2125 22.1703 20.3168C21.9376 20.4353 21.6331 20.4353 21.0239 20.4353L2.7517 20.4353C2.14257 20.4353 1.838 20.4353 1.60534 20.3168C1.40069 20.2125 1.2343 20.0461 1.13003 19.8414C1.01148 19.6088 1.01148 19.3042 1.01148 18.6951L1.01148 17.967C1.01148 17.6747 1.01148 17.5285 1.04721 17.3926C1.07887 17.2721 1.13098 17.158 1.20127 17.0552C1.28059 16.9392 1.39105 16.8434 1.61198 16.652L8.56824 10.6232C8.78917 10.4317 8.89963 10.336 8.97895 10.22C9.04925 10.1172 9.10136 10.0031 9.13301 9.8826C9.16874 9.74668 9.16874 9.6005 9.16874 9.30815L9.16874 3.62225C9.16874 3.40955 9.16874 3.3032 9.20304 3.21125C9.23335 3.13001 9.28266 3.05719 9.34683 2.99887C9.41947 2.93287 9.51821 2.89337 9.7157 2.81438L13.4137 1.33519C13.8134 1.17529 14.0133 1.09534 14.1737 1.12869C14.314 1.15784 14.4372 1.24121 14.5164 1.36066C14.6069 1.49725 14.6069 1.71252 14.6069 2.14307L14.6069 9.30815C14.6069 9.6005 14.6069 9.74668 14.6426 9.8826C14.6743 10.0031 14.7264 10.1172 14.7967 10.22C14.876 10.336 14.9865 10.4317 15.2074 10.6232L22.1637 16.652C22.3846 16.8434 22.4951 16.9392 22.5744 17.0552C22.6447 17.158 22.6968 17.2721 22.7284 17.3926C22.7642 17.5285 22.7642 17.6747 22.7642 17.967L22.7642 18.6951Z" stroke="white" stroke-width="2" stroke-linecap="round" stroke-linejoin="round"/>
</svg>
