<svg width="30" height="29" viewBox="0 0 30 29" fill="none" xmlns="http://www.w3.org/2000/svg">
<path d="M28.4833 12.6757L27.8383 7.51569C27.5853 5.49186 27.4589 4.47992 26.9826 3.71735C26.563 3.0455 25.9568 2.51037 25.2381 2.17733C24.4223 1.79932 23.4025 1.79932 21.3629 1.79932H8.41289C6.37329 1.79932 5.35349 1.79932 4.53774 2.17733C3.81902 2.51037 3.21284 3.0455 2.79322 3.71735C2.31695 4.47992 2.19046 5.49184 1.93748 7.51569L1.29248 12.6757M6.05088 18.1138H23.7249M6.05088 18.1138C3.42289 18.1138 1.29248 15.9834 1.29248 13.3554C1.29248 10.7274 3.42289 8.59703 6.05088 8.59703H23.7249C26.3529 8.59703 28.4833 10.7274 28.4833 13.3554C28.4833 15.9834 26.3529 18.1138 23.7249 18.1138M6.05088 18.1138C3.42289 18.1138 1.29248 20.2442 1.29248 22.8722C1.29248 25.5002 3.42289 27.6306 6.05088 27.6306H23.7249C26.3529 27.6306 28.4833 25.5002 28.4833 22.8722C28.4833 20.2442 26.3529 18.1138 23.7249 18.1138M6.73065 13.3554H6.74425M6.73065 22.8722H6.74425M14.8879 13.3554H23.0452M14.8879 22.8722H23.0452" stroke="white" stroke-width="2" stroke-linecap="round" stroke-linejoin="round"/>
</svg>
