<svg width="34" height="33" viewBox="0 0 34 33" fill="none" xmlns="http://www.w3.org/2000/svg">
<path d="M15.2633 5.5H10.8633C8.55309 5.5 7.39798 5.5 6.51559 5.9496C5.73943 6.34508 5.10838 6.97612 4.7129 7.75229C4.26331 8.63468 4.26331 9.78978 4.26331 12.1V19.25C4.26331 20.5287 4.26331 21.1681 4.40386 21.6926C4.78529 23.1161 5.89717 24.228 7.32068 24.6094C7.84524 24.75 8.48459 24.75 9.76331 24.75V27.9613C9.76331 28.694 9.76331 29.0603 9.9135 29.2485C10.0441 29.4121 10.2422 29.5073 10.4515 29.5071C10.6923 29.5068 10.9784 29.278 11.5505 28.8203L14.8305 26.1963C15.5005 25.6602 15.8355 25.3922 16.2086 25.2016C16.5396 25.0325 16.8919 24.9089 17.256 24.8342C17.6663 24.75 18.0954 24.75 18.9535 24.75H21.0383C23.3485 24.75 24.5036 24.75 25.386 24.3004C26.1622 23.9049 26.7932 23.2739 27.1887 22.4977C27.6383 21.6153 27.6383 20.4602 27.6383 18.15V17.875M27.8051 5.33318C29.416 6.9441 29.416 9.5559 27.8051 11.1668C26.1942 12.7777 23.5824 12.7777 21.9715 11.1668C20.3606 9.5559 20.3606 6.9441 21.9715 5.33318C23.5824 3.72227 26.1942 3.72227 27.8051 5.33318Z" stroke="black" stroke-width="2" stroke-linecap="round" stroke-linejoin="round"/>
</svg>
