<svg width="33" height="33" viewBox="0 0 33 33" fill="none" xmlns="http://www.w3.org/2000/svg">
<path d="M25.8321 28.5512L29.9108 24.4725M29.9108 24.4725L25.8321 20.3937M29.9108 24.4725H21.7533M21.0736 4.47405C23.0666 5.28081 24.4725 7.23475 24.4725 9.51707C24.4725 11.7994 23.0666 13.7533 21.0736 14.5601M16.315 20.3937H10.8767C8.34273 20.3937 7.07576 20.3937 6.07635 20.8077C4.74381 21.3597 3.6851 22.4184 3.13315 23.7509C2.71918 24.7503 2.71918 26.0173 2.71918 28.5512M18.3544 9.51707C18.3544 12.5206 15.9196 14.9554 12.9161 14.9554C9.91254 14.9554 7.47772 12.5206 7.47772 9.51707C7.47772 6.51356 9.91254 4.07874 12.9161 4.07874C15.9196 4.07874 18.3544 6.51356 18.3544 9.51707Z" stroke="white" stroke-width="2" stroke-linecap="round" stroke-linejoin="round"/>
</svg>
