<svg width="30" height="28" viewBox="0 0 30 28" fill="none" xmlns="http://www.w3.org/2000/svg">
<path d="M24.4048 11.656L5.37123 11.656M24.4048 11.656L26.9392 15.88C27.5072 16.8267 27.7912 17.3 27.9387 17.8095C28.0694 18.261 28.1211 18.7317 28.0914 19.2008C28.058 19.7302 27.8834 20.2538 27.5343 21.3012L27.2518 22.1488C26.7169 23.7534 26.4495 24.5557 25.9534 25.1489C25.5154 25.6727 24.9529 26.0781 24.3175 26.328C23.5979 26.611 22.7522 26.611 21.0608 26.611L8.71522 26.611C7.02385 26.611 6.17817 26.611 5.45859 26.328C4.82316 26.0781 4.26065 25.6726 3.82262 25.1489C3.32659 24.5557 3.05916 23.7534 2.5243 22.1488L2.24174 21.3012C1.89263 20.2538 1.71808 19.7302 1.68463 19.2008C1.65499 18.7317 1.70666 18.261 1.83735 17.8095C1.98484 17.3 2.26884 16.8267 2.83683 15.88L5.37123 11.656M24.4048 11.656L24.9721 9.6705C25.2411 8.72917 25.3755 8.25851 25.2699 7.88614C25.1774 7.55995 24.9663 7.2801 24.6781 7.10152C24.349 6.89764 23.8595 6.89764 22.8805 6.89764L6.89551 6.89764C5.91651 6.89764 5.42701 6.89764 5.09799 7.10151C4.80977 7.2801 4.59868 7.55994 4.50614 7.88614C4.40051 8.25851 4.53498 8.72917 4.80393 9.6705L5.37123 11.656M14.888 6.89764H10.0811C9.3728 6.89764 8.69354 6.61117 8.19272 6.10124C7.6919 5.59131 7.41054 4.8997 7.41054 4.17856C7.41054 3.45741 7.6919 2.7658 8.19272 2.25587C8.69354 1.74595 9.3728 1.45947 10.0811 1.45947C13.8198 1.45947 14.888 6.89764 14.888 6.89764ZM14.888 6.89764H19.695C20.4032 6.89764 21.0825 6.61117 21.5833 6.10124C22.0842 5.59131 22.3655 4.8997 22.3655 4.17856C22.3655 3.45741 22.0842 2.7658 21.5833 2.25587C21.0825 1.74595 20.4032 1.45947 19.695 1.45947C15.9562 1.45947 14.888 6.89764 14.888 6.89764Z" stroke="white" stroke-width="2" stroke-linecap="round" stroke-linejoin="round"/>
</svg>
