<svg width="28" height="30" viewBox="0 0 28 30" fill="none" xmlns="http://www.w3.org/2000/svg">
<path d="M10.3466 24.7166L11.1412 26.5037C11.3774 27.0356 11.7629 27.4876 12.2509 27.8048C12.7389 28.122 13.3085 28.2908 13.8905 28.2907C14.4725 28.2908 15.0421 28.122 15.5301 27.8048C16.0181 27.4876 16.4036 27.0356 16.6398 26.5037L17.4344 24.7166C17.7172 24.0825 18.193 23.5539 18.7939 23.206C19.3986 22.8572 20.0982 22.7086 20.7925 22.7815L22.7366 22.9885C23.3153 23.0497 23.8994 22.9417 24.4179 22.6776C24.9365 22.4135 25.3673 22.0046 25.6581 21.5005C25.9493 20.9968 26.088 20.4193 26.0574 19.8383C26.0269 19.2572 25.8283 18.6975 25.4859 18.2271L24.3348 16.6455C23.9249 16.0781 23.7059 15.3952 23.7094 14.6953C23.7093 13.9973 23.9304 13.3172 24.3409 12.7526L25.4919 11.171C25.8344 10.7006 26.0329 10.1409 26.0635 9.55984C26.0941 8.97878 25.9553 8.40133 25.6641 7.89756C25.3733 7.39349 24.9425 6.98462 24.424 6.72051C23.9054 6.4564 23.3214 6.34841 22.7426 6.40962L20.7985 6.61657C20.1042 6.68949 19.4047 6.54091 18.8 6.19209C18.1979 5.84228 17.722 5.31084 17.4404 4.67394L16.6398 2.8869C16.4036 2.35494 16.0181 1.90296 15.5301 1.58575C15.0421 1.26855 14.4725 1.09976 13.8905 1.09985C13.3085 1.09976 12.7389 1.26855 12.2509 1.58575C11.7629 1.90296 11.3774 2.35494 11.1412 2.8869L10.3466 4.67394C10.0651 5.31084 9.5892 5.84228 8.98709 6.19209C8.38239 6.54091 7.68284 6.68949 6.98857 6.61657L5.03838 6.40962C4.45966 6.34841 3.87562 6.4564 3.35705 6.72051C2.83849 6.98462 2.40769 7.39349 2.11687 7.89756C1.82569 8.40133 1.68696 8.97878 1.71753 9.55984C1.7481 10.1409 1.94665 10.7006 2.28908 11.171L3.44016 12.7526C3.85066 13.3172 4.07172 13.9973 4.07159 14.6953C4.07172 15.3933 3.85066 16.0734 3.44016 16.6379L2.28908 18.2195C1.94665 18.6899 1.7481 19.2496 1.71753 19.8307C1.68696 20.4118 1.82569 20.9892 2.11687 21.493C2.40797 21.9968 2.83883 22.4055 3.35732 22.6695C3.8758 22.9336 4.45971 23.0418 5.03838 22.9809L6.98252 22.774C7.6768 22.7011 8.37635 22.8496 8.98105 23.1985C9.58541 23.5473 10.0635 24.0788 10.3466 24.7166Z" stroke="white" stroke-width="2" stroke-linecap="round" stroke-linejoin="round"/>
<path d="M13.8881 18.7739C16.1406 18.7739 17.9667 16.9478 17.9667 14.6953C17.9667 12.4427 16.1406 10.6166 13.8881 10.6166C11.6355 10.6166 9.80945 12.4427 9.80945 14.6953C9.80945 16.9478 11.6355 18.7739 13.8881 18.7739Z" stroke="white" stroke-width="2" stroke-linecap="round" stroke-linejoin="round"/>
</svg>
