<svg width="30" height="27" viewBox="0 0 30 27" fill="none" xmlns="http://www.w3.org/2000/svg">
<path d="M23.0452 18.8056C25.0245 19.7999 26.7215 21.3956 27.9602 23.3909C28.2055 23.7861 28.3282 23.9837 28.3706 24.2573C28.4568 24.8132 28.0766 25.4967 27.5587 25.7168C27.3039 25.825 27.0173 25.825 26.444 25.825M20.3261 12.9532C22.3405 11.9521 23.7249 9.87333 23.7249 7.47121C23.7249 5.06909 22.3405 2.99031 20.3261 1.98921M17.607 7.47121C17.607 10.8501 14.8679 13.5892 11.489 13.5892C8.1102 13.5892 5.37111 10.8501 5.37111 7.47121C5.37111 4.09237 8.1102 1.35327 11.489 1.35327C14.8679 1.35327 17.607 4.09237 17.607 7.47121ZM2.05278 23.0221C4.2203 19.7677 7.64069 17.6678 11.489 17.6678C15.3374 17.6678 18.7578 19.7677 20.9253 23.0221C21.4002 23.7351 21.6376 24.0916 21.6103 24.5469C21.589 24.9015 21.3565 25.3356 21.0732 25.5499C20.7094 25.825 20.2089 25.825 19.208 25.825H3.77005C2.76917 25.825 2.26874 25.825 1.90487 25.5499C1.62155 25.3356 1.38913 24.9015 1.36784 24.5469C1.34051 24.0916 1.57793 23.7351 2.05278 23.0221Z" stroke="white" stroke-width="2" stroke-linecap="round" stroke-linejoin="round"/>
</svg>
